<svg id="Layer_1" data-name="Layer 1" xmlns="http://www.w3.org/2000/svg" viewBox="0 0 125 125"><defs><style>.cls-1{fill:none;}.cls-2{fill:#879d9f;}.cls-3{fill:#bcc7cd;}.cls-4{fill:#9ab1b7;}.cls-5{fill:#d2dade;}.cls-6{fill:#89a2ac;}.cls-7{fill:#ecf3f3;}</style></defs><title>Silver Medal</title><path class="cls-1" d="M9,62.5A53.5,53.5,0,0,0,62.5,116V9A53.5,53.5,0,0,0,9,62.5Z"/><path class="cls-1" d="M116,62.5A53.5,53.5,0,0,0,62.5,9V116A53.5,53.5,0,0,0,116,62.5Z"/><path class="cls-2" d="M62.5,0V9a53.5,53.5,0,0,1,0,107v9a62.5,62.5,0,0,0,0-125Z"/><path class="cls-3" d="M9,62.5A53.5,53.5,0,0,1,62.5,9V0a62.5,62.5,0,0,0-6.4,124.68,63.23,63.23,0,0,0,6.4.32v-9A53.5,53.5,0,0,1,9,62.5Z"/><polyline class="cls-4" points="30.79 88.85 42.68 88.85 42.68 38.22 57.94 38.22 62.32 42.59 62.32 116"/><path class="cls-3" d="M62.5,9V116a53.5,53.5,0,0,0,0-107Z"/><path class="cls-5" d="M9,62.5A53.5,53.5,0,0,0,62.5,116V9A53.5,53.5,0,0,0,9,62.5Z"/><polygon class="cls-6" points="71.63 43.05 79.39 50.82 79.39 43.05 71.63 43.05"/><polygon class="cls-4" points="34.63 43.05 42.39 50.82 42.39 43.05 34.63 43.05"/><path class="cls-6" d="M115.83,58.4,95.65,38.22H81.16V61.16L62.5,42.59V116A53.45,53.45,0,0,0,116,62.5C116,61.12,115.93,59.75,115.83,58.4Z"/><path class="cls-7" d="M93.45,44.38a5.33,5.33,0,0,0,5.32-5.32V39a5.33,5.33,0,0,0-5.32-5.32H74.21A5.33,5.33,0,0,0,68.89,39v.08a5.33,5.33,0,0,0,5.32,5.32h4.32V80H74.21a5.33,5.33,0,0,0-5.32,5.32v.08a5.33,5.33,0,0,0,5.32,5.32H93.45a5.33,5.33,0,0,0,5.32-5.32v-.08A5.33,5.33,0,0,0,93.45,80H89.4V44.38Z"/><line class="cls-1" x1="32.51" y1="88.41" x2="66" y2="121.91"/><path class="cls-4" d="M62.5,116V42.59l-4.37-4.37H42.87V88.85H32.94L60,115.92C60.84,116,61.67,116,62.5,116Z"/><path class="cls-7" d="M56.35,44.38a5.33,5.33,0,0,0,5.32-5.32V39a5.33,5.33,0,0,0-5.32-5.32H37.11A5.33,5.33,0,0,0,31.79,39v.08a5.33,5.33,0,0,0,5.32,5.32h4.32V80H37.11a5.33,5.33,0,0,0-5.32,5.32v.08a5.33,5.33,0,0,0,5.32,5.32H56.35a5.33,5.33,0,0,0,5.32-5.32v-.08A5.33,5.33,0,0,0,56.35,80H52.3V44.38Z"/></svg>