<svg id="Layer_1" data-name="Layer 1" xmlns="http://www.w3.org/2000/svg" viewBox="0 0 125 125"><defs><style>.cls-1{fill:none;}.cls-2{fill:#782732;}.cls-3{fill:#c45462;}.cls-4{fill:#c85760;}.cls-5{fill:#cd7478;}.cls-6{opacity:0.3;}.cls-7{fill:#ffcfd2;}</style></defs><title>Exclamation</title><path class="cls-1" d="M9,62.5A53.5,53.5,0,0,0,62.5,116V9A53.5,53.5,0,0,0,9,62.5Z"/><path class="cls-1" d="M116,62.5A53.5,53.5,0,0,0,62.5,9V116A53.5,53.5,0,0,0,116,62.5Z"/><path class="cls-2" d="M62.5,0V9a53.5,53.5,0,0,1,0,107v9a62.5,62.5,0,0,0,0-125Z"/><path class="cls-3" d="M9,62.5A53.5,53.5,0,0,1,62.5,9V0a62.5,62.5,0,0,0-6.4,124.68,63.23,63.23,0,0,0,6.4.32v-9A53.5,53.5,0,0,1,9,62.5Z"/><path class="cls-4" d="M62.5,9V116a53.5,53.5,0,0,0,0-107Z"/><path class="cls-5" d="M9,62.5A53.5,53.5,0,0,0,62.5,116V9A53.5,53.5,0,0,0,9,62.5Z"/><g class="cls-6"><path class="cls-2" d="M65.31,115.93c.42,0,.82-.06,1.24-.09h0C66.14,115.87,65.73,115.91,65.31,115.93Z"/><path class="cls-2" d="M96.59,103.78q2-1.64,3.8-3.45Q98.58,102.15,96.59,103.78Z"/><path class="cls-2" d="M92.47,106.86q2.13-1.44,4.12-3.08Q94.61,105.42,92.47,106.86Z"/><path class="cls-2" d="M110.79,85.69q1.13-2.34,2-4.8Q111.91,83.35,110.79,85.69Z"/><path class="cls-2" d="M78.47,113.59q2.51-.78,4.92-1.8Q81,112.81,78.47,113.59Z"/><path class="cls-2" d="M66.55,115.84h0c1.4-.1,2.79-.24,4.16-.45C69.34,115.59,68,115.73,66.55,115.84Z"/><path class="cls-2" d="M67.49,26.08l-4.93,3.74V81.73L69,93H67.88a4,4,0,0,0-3.79,2.74L63,99l-.44.38v12.36l4,4.1c1.4-.1,2.79-.24,4.16-.45a53.16,53.16,0,0,0,7.76-1.79q2.51-.78,4.92-1.8a53.38,53.38,0,0,0,9.09-4.93q2.13-1.44,4.12-3.08t3.8-3.45a53.64,53.64,0,0,0,10.39-14.64q1.13-2.34,2-4.8a53.14,53.14,0,0,0,2.54-9.77L71.92,26.95A4,4,0,0,0,67.49,26.08Z"/></g><path class="cls-7" d="M56.82,108.7a6.6,6.6,0,1,1,4.59,1.87A6.24,6.24,0,0,1,56.82,108.7Z"/><path class="cls-7" d="M61.51,24.91h-.09a5.9,5.9,0,0,0-5.88,5.88V80.95a5.9,5.9,0,0,0,5.88,5.88h.09a5.9,5.9,0,0,0,5.88-5.88V30.8A5.9,5.9,0,0,0,61.51,24.91Z"/></svg>