<svg id="Layer_1" data-name="Layer 1" xmlns="http://www.w3.org/2000/svg" viewBox="0 0 125 125"><defs><style>.cls-1{fill:none;}.cls-2{fill:#a7612d;}.cls-3{fill:#be812a;}.cls-4{fill:#d7982f;}.cls-5{fill:#be7c2c;}.cls-6{fill:#b1712a;}.cls-7{fill:#efbc66;}</style></defs><title>Bronze Medal</title><path class="cls-1" d="M9,62.5A53.5,53.5,0,0,0,62.5,116V9A53.5,53.5,0,0,0,9,62.5Z"/><path class="cls-1" d="M116,62.5A53.5,53.5,0,0,0,62.5,9V116A53.5,53.5,0,0,0,116,62.5Z"/><path class="cls-2" d="M62.5,0V9a53.5,53.5,0,0,1,0,107v9a62.5,62.5,0,0,0,0-125Z"/><path class="cls-3" d="M9,62.5A53.5,53.5,0,0,1,62.5,9V0a62.5,62.5,0,0,0-6.4,124.68,63.23,63.23,0,0,0,6.4.32v-9A53.5,53.5,0,0,1,9,62.5Z"/><path class="cls-3" d="M62.5,9V116a53.5,53.5,0,0,0,0-107Z"/><path class="cls-4" d="M9,62.5A53.5,53.5,0,0,0,62.5,116V9A53.5,53.5,0,0,0,9,62.5Z"/><polygon class="cls-5" points="18.46 47.37 25.21 54.12 25.37 47.79 18.46 47.37"/><line class="cls-1" x1="74.91" y1="42.66" x2="90.21" y2="57.96"/><polyline class="cls-1" points="107.73 43.18 114.97 50.42 107.81 44.02 95.96 43.18 95.96 56.96 95.96 64.06 75.81 44.02 62.5 44.18 62.5 125"/><path class="cls-5" d="M55.92,124.55l2.12.29.81,0-1.13-.09Z"/><path class="cls-5" d="M60.26,125l2.24,0c-1,0-1.91,0-2.86-.07Z"/><path class="cls-5" d="M29.92,43.38V83.61L20,88.68l24.08,24.08A53.4,53.4,0,0,0,62.5,116v9l.42-61.52L41.24,41.13Z"/><polygon class="cls-5" points="58.86 124.89 59.64 124.93 59.64 124.93 58.86 124.89 58.86 124.89"/><path class="cls-6" d="M44.13,112.76l11.79,11.79,1.8.25,1.13.09.78,0c.95,0,1.9.07,2.86.07v-9A53.4,53.4,0,0,1,44.13,112.76Z"/><polygon class="cls-6" points="85.35 48.49 90.39 53.56 90.35 48.68 85.35 48.49"/><polyline class="cls-1" points="62.92 63 41.24 41.13 58.07 57.96"/><path class="cls-7" d="M38.22,48.68a4.6,4.6,0,0,0,4.59-4.59V44a4.6,4.6,0,0,0-4.59-4.59H21.63A4.6,4.6,0,0,0,17,44v.07a4.6,4.6,0,0,0,4.59,4.59h3.72V79.43H21.63A4.6,4.6,0,0,0,17,84v.07a4.6,4.6,0,0,0,4.59,4.59h16.6a4.6,4.6,0,0,0,4.59-4.59V84a4.6,4.6,0,0,0-4.59-4.59H34.73V48.68Z"/><path class="cls-6" d="M114.74,50.42l-.16-.16v0Z"/><path class="cls-6" d="M114.58,50.28l-7-6.26-11.85-.84V64.05L75.57,44l-13.07.15V116a53.48,53.48,0,0,0,52.08-65.72Z"/><path class="cls-7" d="M71.22,48.68a4.6,4.6,0,0,0,4.59-4.59V44a4.6,4.6,0,0,0-4.59-4.59H54.63A4.6,4.6,0,0,0,50,44v.07a4.6,4.6,0,0,0,4.59,4.59h3.72V79.43H54.63A4.6,4.6,0,0,0,50,84v.07a4.6,4.6,0,0,0,4.59,4.59h16.6a4.6,4.6,0,0,0,4.59-4.59V84a4.6,4.6,0,0,0-4.59-4.59H67.73V48.68Z"/><path class="cls-7" d="M103.22,48.68a4.6,4.6,0,0,0,4.59-4.59V44a4.6,4.6,0,0,0-4.59-4.59H86.63A4.6,4.6,0,0,0,82,44v.07a4.6,4.6,0,0,0,4.59,4.59h3.72V79.43H86.63A4.6,4.6,0,0,0,82,84v.07a4.6,4.6,0,0,0,4.59,4.59h16.6a4.6,4.6,0,0,0,4.59-4.59V84a4.6,4.6,0,0,0-4.59-4.59H99.73V48.68Z"/></svg>