<svg id="Layer_1" data-name="Layer 1" xmlns="http://www.w3.org/2000/svg" viewBox="0 0 125 125"><defs><style>.cls-1{fill:none;}.cls-2{fill:#e88100;}.cls-3{fill:#fea901;}.cls-4{fill:#ffc001;}.cls-5{fill:#f79e02;}.cls-6{fill:#f8ac01;}.cls-7{fill:#fd2;}</style></defs><title>Gold Medal</title><path class="cls-1" d="M9,62.5A53.5,53.5,0,0,0,62.5,116V9A53.5,53.5,0,0,0,9,62.5Z"/><path class="cls-1" d="M116,62.5A53.5,53.5,0,0,0,62.5,9V116A53.5,53.5,0,0,0,116,62.5Z"/><path class="cls-2" d="M62.5,0V9a53.5,53.5,0,0,1,0,107v9a62.5,62.5,0,0,0,0-125Z"/><path class="cls-3" d="M9,62.5A53.5,53.5,0,0,1,62.5,9V0a62.5,62.5,0,0,0-6.4,124.68,63.23,63.23,0,0,0,6.4.32v-9A53.5,53.5,0,0,1,9,62.5Z"/><path class="cls-3" d="M62.5,9V116a53.5,53.5,0,0,0,0-107Z"/><path class="cls-3" d="M62.5,116a53.47,53.47,0,0,0,16-2.45l-16-16Z"/><path class="cls-4" d="M9,62.5A53.5,53.5,0,0,0,62.5,116V9A53.5,53.5,0,0,0,9,62.5Z"/><polygon class="cls-1" points="62.08 29.52 62.08 97.1 62.5 97.52 62.5 29.52 62.08 29.52"/><path class="cls-3" d="M62.5,39.53V116a53.91,53.91,0,0,0,8.06-.6l-7.95-8.13Z"/><path class="cls-5" d="M114.22,76.2,77.27,39.53H62.5l.11,67.74,7.95,8.13A53.55,53.55,0,0,0,114.22,76.2Z"/><polygon class="cls-6" points="49.63 45.05 57.39 52.82 57.39 45.05 49.63 45.05"/><polygon class="cls-6" points="62.61 95.49 62.61 107.26 50.84 95.49 62.61 95.49"/><path class="cls-7" d="M72.77,45.58a5.79,5.79,0,0,0,5.77-5.77v-.09A5.79,5.79,0,0,0,72.77,34H51.91a5.79,5.79,0,0,0-5.77,5.77v.09a5.79,5.79,0,0,0,5.77,5.77h4.68V84.25H51.91A5.79,5.79,0,0,0,46.14,90v.09a5.79,5.79,0,0,0,5.77,5.77H72.77a5.79,5.79,0,0,0,5.77-5.77V90a5.79,5.79,0,0,0-5.77-5.77H68.38V45.58Z"/></svg>